<svg id="visual" viewBox="0 0 900 600" width="900" height="600" xmlns="http://www.w3.org/2000/svg" xmlns:xlink="http://www.w3.org/1999/xlink" version="1.1"><rect x="0" y="0" width="900" height="600" fill="#002233"></rect><path d="M0 424L21.5 423.3C43 422.7 86 421.3 128.8 434.2C171.7 447 214.3 474 257.2 487.8C300 501.7 343 502.3 385.8 494.2C428.7 486 471.3 469 514.2 461C557 453 600 454 642.8 441.3C685.7 428.7 728.3 402.3 771.2 392C814 381.7 857 387.3 878.5 390.2L900 393L900 601L878.5 601C857 601 814 601 771.2 601C728.3 601 685.7 601 642.8 601C600 601 557 601 514.2 601C471.3 601 428.7 601 385.8 601C343 601 300 601 257.2 601C214.3 601 171.7 601 128.8 601C86 601 43 601 21.5 601L0 601Z" fill="#0066FF" stroke-linecap="round" stroke-linejoin="miter"></path></svg>